<?xml version="1.0" encoding="UTF-8"?>
<svg id="Layer_1" data-name="Layer 1" xmlns="http://www.w3.org/2000/svg" viewBox="0 0 360 360">
  <defs>
    <style>
      .cls-1 {
        fill: #02ac5c;
      }

      .cls-2 {
        fill: #002f35;
      }

      .cls-3 {
        fill: #f1bd57;
      }

      .cls-4 {
        fill: #f1bc57;
      }

      .cls-5 {
        fill: #f1b855;
      }

      .cls-6 {
        fill: #f6ba5a;
      }

      .cls-7 {
        fill: #dea340;
      }

      .cls-8 {
        fill: #f0b955;
      }

      .cls-9 {
        fill: #008c3a;
      }

      .cls-10 {
        fill: #00903e;
      }

      .cls-11 {
        fill: #efb956;
      }

      .cls-12 {
        fill: #f2bc57;
      }

      .cls-13 {
        fill: #019845;
      }

      .cls-14 {
        fill: #003c27;
      }
    </style>
  </defs>
  <g>
    <path class="cls-2" d="M300.77,178.75c0,68.95-55.89,124.85-124.84,124.85s-124.85-55.9-124.85-124.85,55.9-124.85,124.85-124.85,124.84,55.9,124.84,124.85Z"/>
    <path class="cls-7" d="M175.93,58.95c32,0,62.08,12.46,84.71,35.09s35.09,52.71,35.09,84.71-12.46,62.08-35.09,84.71c-22.63,22.63-52.71,35.09-84.71,35.09s-62.08-12.46-84.71-35.09c-22.63-22.63-35.09-52.71-35.09-84.71s12.46-62.08,35.09-84.71,52.71-35.09,84.71-35.09M175.93,52.97c-69.47,0-125.78,56.31-125.78,125.78s56.31,125.78,125.78,125.78,125.78-56.31,125.78-125.78-56.31-125.78-125.78-125.78h0Z"/>
    <g>
      <polygon class="cls-6" points="197.79 113.47 195.04 122.22 202.58 116.98 210.11 122.03 207.49 113.35 214.77 107.86 205.45 107.79 202.45 98.98 199.51 107.86 190.64 107.92 197.79 113.47"/>
      <path class="cls-6" d="M186.36,122.03c-6.83-4.1-9.45-9.13-9.45-9.13,0,0-2.58,5.03-9.41,9.13-7.34,4.4-18.26,11.68-12.32,23.49h2.11s-2.94-3.06-1.34-9.32c1.6-6.26,7.6-8.94,12.19-12,4.56-3.04,8.18-6.46,8.79-8.01.61,1.55,4.23,4.96,8.79,8.01,4.6,3.06,10.6,5.74,12.19,12s-1.34,9.32-1.34,9.32h2.11c5.94-11.81-4.98-19.09-12.32-23.49Z"/>
      <path class="cls-9" d="M194.35,144.93h-4.03c.48-4.44-1.48-7.59-3-8.89-.47-.41-1.15-.47-1.7-.17s-.85.92-.76,1.54c.09.61.09,1.24.04,1.86-3.95-6.16-7.91-9.72-7.91-9.72v-.02s-6.45,5.82-11.11,15.38h-6.25s-2.3-2.93-.64-8.04c1.66-5.1,9.38-9.19,12.19-11.42,2.81-2.24,5.43-5.3,5.81-6.45v.02c.38,1.15,3,4.21,5.81,6.44,2.81,2.23,10.53,6.32,12.19,11.43,1.66,5.1-.64,8.04-.64,8.04Z"/>
      <path class="cls-4" d="M158.49,156.83c-4.13,4.32-6.06,10.62-6.76,13.43-.11.46-.14.92-.09,1.36-1.56-.92-2.89-1.86-3.94-2.77-8.36-7.25-20.75-23.11-12.99-48.96,7.75-25.85,32.36-34.18,45.67-32.74,0,0-17.04.86-27.48,16.94-10.44,16.09-7.47,31.22-3.26,41.17,1.67,3.94,4.67,8.05,8.85,11.57Z"/>
      <path class="cls-4" d="M206.61,167.57c-13.27,13.27-31.63,12.7-44.85,8.49.26-.31.45-.68.57-1.08l.95-3.3.05-.21c.6-3.39,2.31-6.67,4.86-8.9,4.87,2.08,10.63,3.6,16.98,3.57,18.57-.1,33.99-16.09,31.59-38.68,0,0,9.29,20.68-10.15,40.11Z"/>
      <path class="cls-6" d="M164.33,146.89l-1.11,1.92h-5.1c-1.11,0-2.01.9-2.01,2.01v.86c-.78-.93-1.49-1.79-2.11-2.75v-.03c0-1.11.9-2.01,2.01-2.01h8.32Z"/>
      <path class="cls-6" d="M200.41,149.43v9.81c-.64.41-1.3.79-1.98,1.14v-10.05c0-.84-.68-1.52-1.52-1.52h-6.16l-1.06-1.92h8.18c1.4,0,2.54,1.14,2.54,2.54Z"/>
      <path class="cls-10" d="M162.99,149.71l-2.82,5.91c-.89-.73-1.73-1.49-2.51-2.27v-3.06c0-.3.24-.55.55-.55l4.78-.03Z"/>
      <path class="cls-10" d="M197.17,151.87l-.19,8.91-6.32-11.07,4.43.02c1.17,0,2.11.97,2.09,2.14Z"/>
      <path class="cls-11" d="M184.63,140.85c-.41,1.75-1.1,3.11-1.1,3.11-.47.86-1.03,1.61-1.64,2.25-3.28-6.14-4.57-7.46-4.86-7.73-.45.47-3.65,4.02-8.19,12.95-4.22,1.36-6.58,2.92-7.43,3.54l8.71-15.16s3.68-6.01,6.91-8.69v-.11s.04.03.06.05c.02-.02.04-.04.07-.05v.11c3.22,2.68,6.9,8.69,6.9,8.69l.57,1.04Z"/>
      <path class="cls-11" d="M196.29,161.92l-5.68,1.47c-1.72-3.7-3.42-6.67-4.74-9.36,1.79-1.77,2.65-3.4,2.72-3.54.24-.46.45-.92.62-1.36l7.08,12.79Z"/>
      <path class="cls-7" d="M181.46,146.63c-.4.39-.82.73-1.25,1.03-.67-1.2-2.34-4.13-3.28-5.6,0,0-2.97,4.92-4.89,8.49-.91.21-1.77.44-2.56.68,1.1-1.99,5.5-9.83,7.52-11.92,0,0,1.65,1.7,4.46,7.32Z"/>
      <path class="cls-7" d="M189.7,163.7l-1.42.19-4.45-8.16c.48-.33.91-.68,1.31-1.03l4.56,9Z"/>
      <circle class="cls-6" cx="176.93" cy="111.04" r="2.2"/>
      <path class="cls-6" d="M183.87,99.68c-1.18,6.9-8.49,4.78-9.4.48-.91-4.31,3.71-6.77,3.71-6.77h-.14c.09,0,.14,0,.14,0-2.08-.22-5.92,1.08-7.14,5.12-1.21,4.04.72,6.52,2.03,7.65,1.42,1.23,6.17,2.84,9.2-.2,3.04-3.04,1.59-6.27,1.59-6.27Z"/>
      <path class="cls-1" d="M154.65,172.88c-.79-.4-1.19-1.29-.98-2.14.79-3.18,3.13-10.69,8.35-14.35,0,0,3.54-3.06,12.03-4.76,0,0,7.37-.7,10.79-6.96,0,0,1.82-3.49,1.57-6.89-.02-.21.23-.32.37-.17,1.14,1.31,3.91,5.46.48,12.18,0,0-3.21,6.24-10.68,7.2s-13.88,6.56-15.22,14.12l-.95,3.31c-.18.62-.88.92-1.45.63l-4.3-2.18Z"/>
      <path class="cls-13" d="M187.43,143.54c0,.1-.01.21-.01.32-.04,1.47-.46,3.22-1.5,5.26-.03.05-2.92,5.55-9.53,6.39-8.28,1.06-15.05,7.34-16.5,15.27l-.77,2.69-3.2-1.62-.59-.3c-.09-.05-.15-.13-.18-.22-.04-.07-.04-.15-.02-.23.7-2.83,2.79-9.65,7.32-13.15.14-.11.29-.22.44-.33l.11-.09s3.42-2.83,11.29-4.41c.92-.1,8.28-1.15,11.89-7.75.04-.08.66-1.29,1.16-3,.05.37.09.76.09,1.17Z"/>
      <path class="cls-14" d="M187.34,142.37c-.5,1.71-1.12,2.92-1.16,3-3.61,6.6-10.97,7.65-11.89,7.75-7.87,1.58-11.25,4.39-11.29,4.41l-.11.09c-.15.11-.3.22-.44.33-4.39,3.43-6.54,10.38-7.3,13.38.03.09.09.17.18.22l.59.3c.75-3.93,2.88-10.75,7.29-13.84l.12-.1c.61-.47,4.03-2.89,11.01-4.29.83-.1,8-1.05,11.89-7.35.3-.47.54-.97.77-1.48.13-.29.28-.62.42-.93,0-.11.01-.22.01-.32,0-.42-.03-.8-.09-1.17Z"/>
    </g>
    <path class="cls-3" d="M183.27,66.8c26.41,1.8,50.31,12.67,68.62,29.53-.92.08-1.79.21-2.6.36-7.36-6.59-15.45-12.1-24.1-16.43-1.34-.68-2.69-1.33-4.06-1.94-1.56-.7-3.13-1.37-4.72-1.99-.81-.33-1.63-.65-2.45-.95-3.25-1.2-6.56-2.24-9.92-3.13-3-.8-6.04-1.46-9.12-2-3.03-.54-6.1-.94-9.19-1.22-1.1-.11-2.21-.19-3.32-.26l-.02-.02c-.64-.59-1.24-1.32-1.76-2.1.88.04,1.76.09,2.64.15Z"/>
    <path class="cls-3" d="M288.17,174.21c-.47-.35-.94-.72-1.4-1.09-.22-.19-.47-.4-.73-.63-.05-.84-.11-1.69-.18-2.53h0c-.3-3.61-.76-7.18-1.41-10.71-.74-4.13-1.72-8.2-2.93-12.19-.18-.61-.37-1.22-.57-1.83-.89-2.76-1.88-5.48-3-8.16-.34-.85-.69-1.69-1.07-2.53-.68-1.55-1.4-3.08-2.16-4.59-4.48-9-10.22-17.42-17.14-25.03.16-.92.28-1.79.37-2.58,11.21,11.99,19.82,26.42,24.95,42.41.14.41.27.83.4,1.25,2.77,8.98,4.44,18.43,4.87,28.21Z"/>
    <g>
      <path class="cls-12" d="M285.6,191.27v.02c-.37,3.42-.9,6.8-1.57,10.14,0,.01,0,.02,0,.02-.37,1.82-.79,3.62-1.25,5.41,0,.03,0,.06-.02.08-.23.92-.48,1.84-.74,2.75.01.01,0,.03-.01.04-2.44,8.55-5.91,16.75-10.34,24.46-1.01,1.76-2.07,3.49-3.18,5.19-1.41,2.17-2.9,4.3-4.47,6.37-.01.02-.02.04-.04.05-.54.71-1.09,1.42-1.64,2.12-.1.13-.21.26-.31.4-.34.41-.67.82-1.02,1.23h0c-1.26,1.54-2.56,3.03-3.92,4.5.12.92.19,1.85.23,2.71,2.43-2.56,4.74-5.22,6.92-8h0s.06-.07.07-.1c13.51-17.21,22.1-38.44,23.7-61.6-.72.62-1.47,1.3-2.19,1.96-.07.75-.14,1.5-.22,2.25Z"/>
      <path class="cls-12" d="M155.37,288.08c-2.17-.39-4.33-.85-6.46-1.38-6.51-1.59-12.83-3.77-18.91-6.51-.37-.16-.74-.33-1.12-.51-4.23-1.96-8.34-4.19-12.3-6.69-.82-.51-1.63-1.04-2.43-1.58-3.93-2.62-7.71-5.5-11.32-8.65-.77.19-1.6.37-2.47.5,18.47,16.5,42.41,27,68.78,28.46-.64-.72-1.31-1.45-1.94-2.13-3.99-.29-7.94-.8-11.83-1.51Z"/>
      <path class="cls-12" d="M237.74,270.78s-.02.02-.03.03c-1.3.9-2.62,1.76-3.95,2.58-3.39,2.11-6.9,4.02-10.49,5.73h-.02c-.63.32-1.27.62-1.92.91-5.85,2.67-11.94,4.81-18.2,6.39-.01.01-.03.02-.06.02-2.51.65-5.06,1.2-7.63,1.66h-.02c-3.3.6-6.63,1.04-10,1.34-.06.07-.12.13-.17.19-.5.57-.95,1.07-1.31,1.5-.13.16-.26.32-.39.48,25.71-1.81,49.04-12.23,67.12-28.4-.86-.14-1.68-.32-2.45-.51-3.35,2.92-6.85,5.63-10.48,8.08Z"/>
      <path class="cls-12" d="M88.98,248.37c-2.47-3.09-4.77-6.29-6.89-9.6-.69-1.07-1.36-2.16-2.02-3.26-.01-.01-.01-.03-.01-.04-6.46-10.88-10.96-22.77-13.34-35.25-.47-2.39-.85-4.81-1.15-7.25-.17-1.42-.32-2.85-.44-4.28-.72-.66-1.46-1.32-2.17-1.92,1.8,27.22,13.27,51.8,31.02,70.33.04-.86.1-1.79.21-2.72-1.49-1.6-2.93-3.25-4.32-4.93-.29-.36-.59-.72-.89-1.08Z"/>
      <path class="cls-12" d="M230.23,86.86l-6.15-4.33s.17,1.6,1.65,3.33c1.48,1.72,4.5,1.01,4.5,1.01Z"/>
      <path class="cls-12" d="M208.67,85.79c.1-1.48-.57-3.88-.57-3.88-1.91,1.72.57,3.88.57,3.88Z"/>
      <path class="cls-12" d="M226.66,92.84c-1.31.51-1.82,2.27-1.82,2.27,1.79-.73,1.82-2.27,1.82-2.27Z"/>
      <path class="cls-12" d="M248.75,112.66c-1.33-.46-2.85.54-2.85.54,1.84.6,2.85-.54,2.85-.54Z"/>
      <path class="cls-12" d="M232.98,103.75s.48.26.03-.67c-.45-.93-1.47-1.44-1.37-3.67.1-2.23.89-8.36-1.05-9.61,0,0-.93-.41-1.09.38,0,0,1.44,1.85.99,5.07-.45,3.22-.83,6.54,2.49,8.49Z"/>
      <path class="cls-12" d="M233.58,92.04c4.15,1.31,5.87,5.97,6.35,8.3s-.77,5.59-.77,5.59c0,1.21.86,2.23.86,2.23,2.39-6.67-.06-11.62-.06-11.62,0,0,1.37.73,3.19,5.81s-.67,8.39-1.18,9.7.13,1.18.13,1.18c4.56-3.19,2.55-10.88,2.55-10.88,3.32-1.4,8.94-1.95,8.94-1.95.48,3.73-1.88,9.54-1.88,9.54,0,0-.64-.41-3.89-.13-3.26.29-3.96,2.9-3.96,2.9,7.82-3.99,13.5,1.31,13.5,1.31-4.53-2.81-10.37,1.15-10.37,1.15,0,0,2.17.19,2.27.19,1.11,0,4.18-1.63,8.9.26s6.22,9.22,6.22,9.22c0,0-.93-1.05-3.77-1.47-2.84-.41-5.71,1.53-7.5-.19s-1.79-1.02-1.79-1.02c1.44,3.16,5.52,2.9,7.24,2.71,1.72-.19,4.98-.48,6.03,1.53,1.05,2.01-1.12,4.53-1.12,4.53-4.02.41-5.14-1.44-5.14-1.44,0,0,1.76-1.21,3.83-1.44,2.07-.22,1.15-1.09,1.15-1.09-2.36-1.5-7.21.16-6.7,2.94.51,2.78,6.7,2.49,6.7,2.49,0,0,.13.48-.41,1.15-.54.67-2.68,4.05-.73,7.44,1.95,3.38,6.06,2.04,6.06,2.04.64,2.27,3.29,4.44,3.29,4.44.8-.48,1.12-1.56,1.12-1.56-2.27-1.05-3.26-3.61-3.26-3.61,1.72-.89,2.62-4.05,1.44-5.52-1.18-1.47-1.63-.26-1.63-.26l.35.61c1.37,1.72-.45,4.53-2.59,4.44-2.14-.1-4.85-2.3-3.29-5.62s5.87-2.49,5.87-2.49c5.78,1.95,5.46,8.49,4.98,11.33-.48,2.84-2.68,4.66-5.55,4.18-2.87-.48-3.41-4.76-3.41-4.76-1.47,1.18-.41,3.45-.41,3.45,1.56,3.77,6.22,2.52,6.22,2.52,0,0-2.68,1.6-3.54,4.09-.86,2.49,1.44,3.26,1.44,3.26,3.32.54,2.74-2.49,2.74-2.49,0,0-.51.8-1.6,1.09-1.09.29-2.07-1.09.32-3.26s4.98-4.6,5.39-9.57c.41-4.98-1.66-7.91-1.66-7.91-.35-3.67-2.46-4.28-2.46-4.28.77.64.93,2.07.93,2.07-.96-.89-2.62-1.28-2.62-1.28.38-7.12-2.23-7.28-2.23-7.28,1.44,2.68.54,7.02.54,7.02-2.14,0-4.18,1.09-4.18,1.09.35-.51,2.17-3.96,1.69-6.61-.48-2.65-.93-5.27-4.66-10.05-3.73-4.79-8.2-5.74-8.2-5.74,2.33-4.31,2.43-11.55,2.43-11.55-6.29-.45-11.52,2.07-11.52,2.07,0,0-.89-3.22-4.28-6.54s-7.98-3.96-7.98-3.96c-.41.64,1.66,1.69,1.66,1.69Z"/>
      <path class="cls-12" d="M233.84,95.28c-1.02,5.68,3.51,10.02,3.51,10.02,0,0,1.4-2.87-.06-6.29s-3.45-3.73-3.45-3.73Z"/>
      <path class="cls-12" d="M251.01,103.35s-3.96.96-4.53,1.95-.7,3.64-.7,3.64c5.46-.38,5.23-5.59,5.23-5.59Z"/>
      <path class="cls-12" d="M253.99,120.64c1.27.55,6.53.53,6.53.53,0,0-3.84-6.2-9.81-3.35,0,0,1.02,1.84,3.27,2.83Z"/>
      <path class="cls-12" d="M242.14,105.49c-.77,1.4-.7,3.96-.7,3.96,1.47-1.28.7-3.96.7-3.96Z"/>
      <path class="cls-12" d="M268.89,134.17c-.98.26-3.33,4.14-1.12,4,0,0,.55-1.2,1.05-1.96.5-.77,1.05-2.3.07-2.03Z"/>
      <path class="cls-12" d="M274.94,149.15s-.03,4.24-1.82,6.16c-1.79,1.91-4.5,5.62-2.27,8.62l-.03-.1c0-.19-.45-2.04.83-3.41,1.25-1.34,5.29-5.41,4.04-9.84-.02-.09.07-.15.14-.1.79.67,3.44,3.11,3.92,6.2.57,3.64,1.02,7.31-3.93,10.72,0,0-.26,1.24,1.47.7s5.43-5.17,3.96-11.74-6.32-7.21-6.32-7.21Z"/>
      <path class="cls-12" d="M275.64,158.57c-2.45,2.41-3.02,5.33-3.15,6.69-.03.36.33.62.66.47,2.02-.91,3.01-2.08,3.01-2.08,3.28-3.97.36-8.14.36-8.14-.36,7.28-2.2,7.4-2.2,7.4,1.6-1.63,1.32-4.33,1.32-4.33Z"/>
      <path class="cls-12" d="M282.69,170.53c1.53-.19.8-6.89.1-8.68,0,0-1.44,5.23-1.44,7.09,0,0-.19,1.79,1.34,1.6Z"/>
      <path class="cls-12" d="M276.73,147.99c1.07.66,2.85,2.61,2.85,2.61,0-3.11-3.02-4.74-3.02-4.74-.34.19-.35.9-.31,1.4.03.31.21.57.48.73Z"/>
      <path class="cls-12" d="M283.19,191.94c-.29-1.2-1.77-.77-1.68.53.1,1.29-.29,8.59-.29,8.59,1.87-1.56,2.25-7.91,1.96-9.11Z"/>
      <path class="cls-12" d="M280.41,200.94c-.72-4.02-3.73-7.04-3.73-7.04l-.76.76c-.13.13-.13.35,0,.49,2.8,2.95,3.28,6.97,2.63,11.72-.67,4.88-6.13,8.62-6.13,8.62l.62.77c7.13-3.21,8.09-11.3,7.37-15.32Z"/>
      <path class="cls-12" d="M276.42,202.05c-.62-2.68-3.54-5.17-3.54-5.17,0,0-1.29,3.26-.43,5.74s3.26,5.6,3.26,5.6c0,0,1.34-3.49.72-6.18Z"/>
      <path class="cls-12" d="M271.76,214.71c1.34-.62,2.44-3.49,2.01-5.84-.43-2.35-2.44-3.97-3.4-5.74s.14-4.69.14-4.69c-2.05-.32-1.58,4.43-1.58,4.43.26,2.06,2.03,2.92,2.99,5.07s.14,4.45-.34,5.55c-.48,1.1.17,1.22.17,1.22Z"/>
      <path class="cls-12" d="M262.41,243.49c2.45-5.14,2.2-8.61,1.69-11.34-.05-.28.16-.54.45-.52,1.16.09,3.87.06,5.71-1.74,2.39-2.34,4.59-7.85,2.25-13.07,0,0-1.73-3.57-3.77-5.1-2.04-1.54-1.44-2.94-.64-2.81.8.13,2.12,1.23,2.56,2.49,0,0,.44-2.75-1.98-3.94,0,0-2.07-1.27-3.15,1.38,0,0-.8,1.88,1.94,3.89,2.75,2.01,4.53,5.68,4.79,8.01.25,2.33-.45,8.04-4.92,9.29-4.46,1.24-6.89-2.04-6.47-4.66.41-2.62,3.57-3.86,5.13-2.46,1.57,1.41,1.15,3.86-.38,3.58,0,0-.62-.22-.84-.99,0,0-1.3,0-.42,1.2.88,1.2,2.39.89,3.1.45.66-.42,1.97-3.02.08-5.09-.24-.26-.28-.64-.12-.96.43-.88,1.38-2.56,2.86-3.78,0,0,.18-.93-.96-1.26,0,0-2.16,1.64-3.36,4.2-.17.37-.58.56-.98.49-1.15-.22-3.45-.3-4.93,1.91-1.8,2.69-.77,6.11.8,7.6.23.23.13.63-.19.72-1.29.38-3.79,1.25-5.36,2.75-.55.52-.6,1.39-.14,1.99.42.55,1.19,1.14,2.55,1.48,2.96.73,4.9.06,4.75-1.28,0,0-3.48.63-5.41-.81-.2-.15-.19-.47.03-.6l4.84-2.75c.22-.12.51-.04.61.2.38.88,1.07,3.14.23,6.84-1.1,4.88-4.95,9.34-8.84,9.56,0,0-2.99.18-4.26-.95-1.27-1.12-3.87-.76-3.87-.76,0,0,2.44,2.15,5.81,2.65,0,0-3.4.84-6.24-.62-2.85-1.46-3.33-2.27-3.33-2.27l-.42.41s1.63,2.14,2.08,5.21c.44,3.06-.45,7.62-3.03,9.92,0,0,1.56-3.7.73-6.22-.83-2.52-1.02-4.09-.7-5.05,0,0-1.63.99-1.15,3.68.48,2.68,1.28,4.75-.42,7.69-1.69,2.93-6.19,5.13-6.48,6.86,0,0,5.18-1.02,8.3-5.11,3.13-4.08,3.42-5.07,3.42-5.07,0,0,5.2,2.45,10.5,2.3,0,0,.28-8.24-1.37-11.11,0,0,6.28-.93,8.92-6.43ZM252.63,258.85l-8.1-2.13c1.67-4.7-.84-8.11-1.11-8.46,2.99,3.59,8.01,2.01,8.01,2.01,1.47,2.01,1.2,8.58,1.2,8.58Z"/>
      <path class="cls-12" d="M262.08,237.82s-1.37,1.28-3.03,1.02c-1.66-.26-7.28-1.05-8.9,2.52,0,0,.11.5,1-.43.89-.93,2.35-1.1,2.99-1.01.65.1,4.27.45,5.43.19,1.7-.38,3.4-2.18,2.51-2.3Z"/>
      <path class="cls-12" d="M251.86,243.82c-.93,1.03-1.94,1.01-1.94,1.01,0,0,1.91,2.08,5.36,1.22,3.45-.86,4.31-4.14,4.31-4.14-3.26-.26-6.8.89-7.73,1.91Z"/>
      <path class="cls-12" d="M246.02,251.34c.22,5.38,4.88,4.8,4.88,4.8-.8-4.51-4.88-4.8-4.88-4.8Z"/>
      <path class="cls-12" d="M269.43,232.67c-2.68.91-2.97,5.03-2.97,5.03,2.44-1.15,2.97-5.03,2.97-5.03Z"/>
      <path class="cls-12" d="M264.18,218.43s.35-3.29,3.19-3.22c0,0,.89-1.21-1.53-1.21s-3.1,3.22-2.65,3.96c.45.73.99.48.99.48Z"/>
      <path class="cls-12" d="M276.37,215.99c-.31,0-2.06.96-2.06,1.56s.98,2.47.98,2.47c.36-.22.1-1.48.07-2.01s1.32-2.01,1.01-2.01Z"/>
      <path class="cls-12" d="M241.86,250.12s-.45,2.01.41,3.32c0,0,.96-1.5-.41-3.32Z"/>
      <path class="cls-12" d="M234.39,264.66c6.41-4.47,3.13-10.15,3.13-10.15-.54,1.12-2.52,2.52-3.03,4.98s-.1,5.17-.1,5.17Z"/>
      <path class="cls-12" d="M236.15,268.13s-5.79,4.5-12.4.44c0,0,.29-4.8,2.78-5.28,0,0,1.89.22,2.09,3.04.19,2.83-.34,3.4.4,3.18.74-.21,1.32-2.84.98-4.35-.33-1.51-1.65-3.42-3.37-3.62-1.72-.19-4.17,2.3-4.26,6.61,0,0-5.21-4.17-9.36-1.78,0,0-1.6.7-2.17,2.75,0,0-5.49,1.62-3.29,6.28,0,0,.32.67.74-1.56.41-2.23,2.23-3.13,2.23-3.13,0,0,.41,2.01.16,3.38-.26,1.38-2.04,3.83-3.19,4.5,0,0-2.2.29-3.96-1.62-1.75-1.92-4.44-4.25-9.8-2.81,0,0,1.31,2.39,4.34,3.03,3.04.64,3.64.54,4.57.8.92.25,3.54,1.88,3.54,1.88,0,0-8.07,7.44-17.78,2.39l-1.21,1.03s3.35,3.12,10.21,2.13c6.86-.99,10.82-5.17,10.82-5.17,0,0,5.56,1.41,7.63-1.11,0,0-.38-.51-2.46.03-2.07.54-4.24.13-4.24.13,0,0,2.74-2.68,2.77-4.38,0,0,1.31,2.37,4.6,2.84,3.29.48,5.65-1.91,6.26-3.35.6-1.43.86-4.43.86-4.43,0,0,2.23,1.78,6,1.66,3.76-.13,6.67-2.03,6.51-3.51ZM219.3,275.69c-1.49.56-3.48.5-5.43-1.21-1.85-1.63-2.33-5.87.54-7.12,2.88-1.24,4.6.26,4.92,1.34.32,1.09.25,2.68-1.41,3.26-1.66.57-2.01-1.34-2.01-1.34-1.15.73-.51,3.22,2.49,2.71,3-.51,2.59-4.31,2.59-4.31,2.34,2.67.33,5.9-1.69,6.67Z"/>
      <path class="cls-12" d="M202.52,279.7s-3.83.06-5.68-.8-4.69-5.04-4.69-5.04c0,0-.45,4.91,3.38,6.8,3.83,1.88,6.99-.96,6.99-.96Z"/>
      <path class="cls-12" d="M204.43,275.16c.45,1.85,1.66,2.17,1.66,2.17.22-3.03-.77-5.97-3.83-6.45-3.06-.48-4.24.99-4.24.99,4.66-.64,5.97,1.44,6.41,3.29Z"/>
      <path class="cls-12" d="M224.01,275.59l4.45-3.02c-4.31-.48-4.45,3.02-4.45,3.02Z"/>
      <path class="cls-12" d="M232.27,261.18c-.55-2.49.55-4.84.55-4.84-3.06,1.72-1.82,6.7-1.48,9.1.34,2.39-1.34,4.12-1.34,4.12l.6.05c.44.03.87-.17,1.14-.52,1.88-2.48,1.04-5.59.53-7.9Z"/>
      <path class="cls-12" d="M125.59,85.86c1.48-1.72,1.65-3.33,1.65-3.33l-6.15,4.33s3.02.72,4.5-1.01Z"/>
      <path class="cls-12" d="M143.23,81.92s-.67,2.39-.57,3.88c0,0,2.49-2.15.57-3.88Z"/>
      <path class="cls-12" d="M124.66,92.84s.03,1.53,1.82,2.27c0,0-.51-1.76-1.82-2.27Z"/>
      <path class="cls-12" d="M105.42,113.2s-1.53-1-2.85-.54c0,0,1.02,1.15,2.85.54Z"/>
      <path class="cls-12" d="M120.74,89.81c-1.95,1.24-1.15,7.37-1.05,9.61.1,2.23-.93,2.74-1.37,3.67-.45.93.03.67.03.67,3.32-1.95,2.94-5.27,2.49-8.49-.45-3.22.99-5.07.99-5.07-.16-.8-1.09-.38-1.09-.38Z"/>
      <path class="cls-12" d="M89.84,116.07c-3.73,4.79-4.18,7.4-4.66,10.05-.48,2.65,1.34,6.1,1.69,6.61,0,0-2.04-1.09-4.18-1.09,0,0-.89-4.34.54-7.02,0,0-2.62.16-2.23,7.28,0,0-1.66.38-2.62,1.28,0,0,.16-1.44.93-2.07,0,0-2.11.61-2.46,4.28,0,0-2.07,2.94-1.66,7.91.41,4.98,3,7.4,5.39,9.57s1.4,3.54.32,3.26-1.6-1.09-1.6-1.09c0,0-.57,3.03,2.74,2.49,0,0,2.3-.77,1.44-3.26-.86-2.49-3.54-4.09-3.54-4.09,0,0,4.66,1.24,6.22-2.52,0,0,1.05-2.27-.41-3.45,0,0-.54,4.28-3.41,4.76-2.87.48-5.07-1.34-5.55-4.18-.48-2.84-.8-9.38,4.98-11.33,0,0,4.31-.83,5.87,2.49,1.56,3.32-1.15,5.52-3.29,5.62-2.14.1-3.96-2.71-2.59-4.44l.35-.61s-.45-1.21-1.63.26c-1.18,1.47-.29,4.63,1.44,5.52,0,0-.99,2.55-3.26,3.61,0,0,.32,1.09,1.12,1.56,0,0,2.65-2.17,3.29-4.44,0,0,4.12,1.34,6.06-2.04,1.95-3.38-.19-6.77-.73-7.44-.54-.67-.41-1.15-.41-1.15,0,0,6.19.29,6.7-2.49.51-2.78-4.34-4.44-6.7-2.94,0,0-.93.86,1.15,1.09,2.07.22,3.83,1.44,3.83,1.44,0,0-1.12,1.85-5.14,1.44,0,0-2.17-2.52-1.12-4.53,1.05-2.01,4.31-1.72,6.03-1.53,1.72.19,5.81.45,7.24-2.71,0,0,0-.7-1.79,1.02s-4.66-.22-7.5.19c-2.84.41-3.77,1.47-3.77,1.47,0,0,1.5-7.34,6.22-9.22,4.72-1.88,7.79-.26,8.9-.26.1,0,2.27-.19,2.27-.19,0,0-5.84-3.96-10.37-1.15,0,0,5.68-5.3,13.5-1.31,0,0-.7-2.62-3.96-2.9-3.26-.29-3.89.13-3.89.13,0,0-2.36-5.81-1.88-9.54,0,0,5.62.54,8.94,1.95,0,0-2.01,7.69,2.55,10.88,0,0,.64.13.13-1.18-.51-1.31-3-4.63-1.18-9.7s3.19-5.81,3.19-5.81c0,0-2.46,4.95-.06,11.62,0,0,.86-1.02.86-2.23,0,0-1.24-3.26-.77-5.59.48-2.33,2.2-6.99,6.35-8.3,0,0,2.07-1.05,1.66-1.69,0,0-4.6.64-7.98,3.96-3.38,3.32-4.28,6.54-4.28,6.54,0,0-5.23-2.52-11.52-2.07,0,0,.1,7.24,2.43,11.55,0,0-4.47.96-8.2,5.74Z"/>
      <path class="cls-12" d="M114.03,99.01c-1.47,3.41-.06,6.29-.06,6.29,0,0,4.53-4.34,3.51-10.02,0,0-1.98.32-3.45,3.73Z"/>
      <path class="cls-12" d="M100.31,103.35s-.22,5.2,5.23,5.59c0,0-.13-2.65-.7-3.64s-4.53-1.95-4.53-1.95Z"/>
      <path class="cls-12" d="M90.79,121.16s5.27.03,6.53-.53c2.25-.98,3.27-2.83,3.27-2.83-5.96-2.85-9.81,3.35-9.81,3.35Z"/>
      <path class="cls-12" d="M109.88,109.45s.06-2.55-.7-3.96c0,0-.77,2.68.7,3.96Z"/>
      <path class="cls-12" d="M83.55,138.17c2.2.14-.14-3.73-1.12-4s-.43,1.27.07,2.03c.5.77,1.05,1.96,1.05,1.96Z"/>
      <path class="cls-12" d="M80.46,163.93c2.23-3-.48-6.7-2.27-8.62-1.79-1.91-1.82-6.16-1.82-6.16,0,0-4.85.64-6.32,7.21s2.23,11.2,3.96,11.74c1.72.54,1.47-.7,1.47-.7-4.95-3.41-4.5-7.09-3.93-10.72.49-3.08,3.13-5.53,3.92-6.2.07-.06.16,0,.14.1-1.24,4.42,2.79,8.49,4.04,9.84,1.28,1.37.83,3.22.83,3.41l-.03.1Z"/>
      <path class="cls-12" d="M74.79,155.5s-2.92,4.16.36,8.14c0,0,.99,1.17,3.01,2.08.33.15.7-.11.66-.47-.13-1.35-.7-4.28-3.15-6.69,0,0-.29,2.7,1.32,4.33,0,0-1.84-.12-2.2-7.4Z"/>
      <path class="cls-12" d="M68.63,170.53c1.53.19,1.34-1.6,1.34-1.6,0-1.85-1.44-7.09-1.44-7.09-.7,1.79-1.44,8.49.1,8.68Z"/>
      <path class="cls-12" d="M74.59,147.99c.26-.16.45-.42.48-.73.04-.5.03-1.21-.31-1.4,0,0-3.02,1.63-3.02,4.74,0,0,1.78-1.94,2.85-2.61Z"/>
      <path class="cls-12" d="M68.13,191.94c-.29,1.2.1,7.55,1.96,9.11,0,0-.38-7.29-.29-8.59s-1.39-1.72-1.68-.53Z"/>
      <path class="cls-12" d="M74.64,193.9s-3.02,3.02-3.73,7.04c-.72,4.02.24,12.11,7.37,15.32l.62-.77s-5.46-3.73-6.13-8.62c-.65-4.75-.17-8.77,2.63-11.72.13-.14.13-.35,0-.49l-.76-.76Z"/>
      <path class="cls-12" d="M74.89,202.05c-.62,2.68.72,6.18.72,6.18,0,0,2.39-3.11,3.26-5.6.86-2.49-.43-5.74-.43-5.74,0,0-2.92,2.49-3.54,5.17Z"/>
      <path class="cls-12" d="M77.54,208.87c-.43,2.35.67,5.22,2.01,5.84,0,0,.65-.12.17-1.22-.48-1.1-1.29-3.4-.34-5.55.96-2.15,2.73-3.02,2.99-5.07,0,0,.47-4.75-1.58-4.43,0,0,1.1,2.92.14,4.69-.96,1.77-2.97,3.4-3.4,5.74Z"/>
      <path class="cls-12" d="M110.38,263.8c3.12,4.09,8.3,5.11,8.3,5.11-.29-1.73-4.79-3.93-6.48-6.86-1.7-2.94-.9-5.01-.42-7.69.48-2.69-1.15-3.68-1.15-3.68.32.96.13,2.53-.7,5.05-.83,2.52.73,6.22.73,6.22-2.58-2.3-3.47-6.86-3.03-9.92.45-3.07,2.08-5.21,2.08-5.21l-.42-.41s-.48.81-3.33,2.27c-2.84,1.46-6.24.62-6.24.62,3.37-.5,5.81-2.65,5.81-2.65,0,0-2.6-.36-3.87.76-1.27,1.13-4.26.95-4.26.95-3.89-.22-7.74-4.68-8.84-9.56-.84-3.7-.15-5.96.23-6.84.1-.24.39-.32.61-.2l4.84,2.75c.22.13.23.45.03.6-1.93,1.44-5.41.81-5.41.81-.15,1.34,1.79,2.01,4.75,1.28,1.36-.34,2.13-.93,2.55-1.48.46-.6.41-1.47-.14-1.99-1.57-1.5-4.07-2.37-5.36-2.75-.32-.09-.42-.49-.19-.72,1.57-1.49,2.6-4.91.8-7.6-1.48-2.21-3.78-2.13-4.93-1.91-.4.07-.81-.12-.98-.49-1.2-2.56-3.36-4.2-3.36-4.2-1.14.33-.96,1.26-.96,1.26,1.48,1.22,2.43,2.9,2.86,3.78.16.32.12.7-.12.96-1.89,2.07-.58,4.67.08,5.09.71.44,2.22.75,3.1-.45.88-1.2-.42-1.2-.42-1.2-.22.77-.84.99-.84.99-1.53.28-1.95-2.17-.38-3.58,1.56-1.4,4.72-.16,5.13,2.46.42,2.62-2.01,5.9-6.47,4.66-4.47-1.25-5.17-6.96-4.92-9.29.26-2.33,2.04-6,4.79-8.01,2.74-2.01,1.94-3.89,1.94-3.89-1.08-2.65-3.15-1.38-3.15-1.38-2.42,1.19-1.98,3.94-1.98,3.94.44-1.26,1.76-2.36,2.56-2.49.8-.13,1.4,1.27-.64,2.81-2.04,1.53-3.77,5.1-3.77,5.1-2.34,5.22-.14,10.73,2.25,13.07,1.84,1.8,4.55,1.83,5.71,1.74.29-.02.5.24.45.52-.51,2.73-.76,6.2,1.69,11.34,2.64,5.5,8.92,6.43,8.92,6.43-1.65,2.87-1.37,11.11-1.37,11.11,5.3.15,10.5-2.3,10.5-2.3,0,0,.29.99,3.42,5.07ZM98.69,258.85s-.27-6.57,1.2-8.58c0,0,5.02,1.58,8.01-2.01-.27.35-2.78,3.76-1.11,8.46l-8.1,2.13Z"/>
      <path class="cls-12" d="M92.27,238.84c-1.66.26-3.03-1.02-3.03-1.02-.89.12.81,1.91,2.51,2.3,1.16.26,4.79-.1,5.43-.19.65-.1,2.11.07,2.99,1.01.89.93,1,.43,1,.43-1.63-3.57-7.24-2.78-8.9-2.52Z"/>
      <path class="cls-12" d="M91.73,241.91s.86,3.28,4.31,4.14c3.45.86,5.36-1.22,5.36-1.22,0,0-1.01.02-1.94-1.01-.93-1.03-4.48-2.18-7.73-1.91Z"/>
      <path class="cls-12" d="M100.42,256.14s4.66.58,4.88-4.8c0,0-4.08.29-4.88,4.8Z"/>
      <path class="cls-12" d="M84.85,237.7s-.29-4.12-2.97-5.03c0,0,.53,3.88,2.97,5.03Z"/>
      <path class="cls-12" d="M83.94,215.21c2.84-.06,3.19,3.22,3.19,3.22,0,0,.54.26.99-.48.45-.73-.22-3.96-2.65-3.96s-1.53,1.21-1.53,1.21Z"/>
      <path class="cls-12" d="M76.03,220.01s.98-1.87.98-2.47-1.75-1.56-2.06-1.56,1.03,1.48,1.01,2.01c-.02.53-.29,1.8.07,2.01Z"/>
      <path class="cls-12" d="M109.04,253.44c.86-1.31.41-3.32.41-3.32-1.37,1.82-.41,3.32-.41,3.32Z"/>
      <path class="cls-12" d="M116.93,264.66s.41-2.71-.1-5.17c-.51-2.46-2.49-3.86-3.03-4.98,0,0-3.29,5.68,3.13,10.15Z"/>
      <path class="cls-12" d="M143.03,273.84c.42,2.23.74,1.56.74,1.56,2.2-4.66-3.29-6.28-3.29-6.28-.57-2.05-2.17-2.75-2.17-2.75-4.15-2.39-9.36,1.78-9.36,1.78-.09-4.31-2.54-6.8-4.26-6.61-1.72.2-3.04,2.11-3.37,3.62-.34,1.51.24,4.14.98,4.35.74.22.21-.35.4-3.18.2-2.82,2.09-3.04,2.09-3.04,2.49.48,2.78,5.28,2.78,5.28-6.61,4.06-12.4-.44-12.4-.44-.16,1.48,2.75,3.38,6.51,3.51,3.77.12,6-1.66,6-1.66,0,0,.26,3,.86,4.43.61,1.44,2.97,3.83,6.26,3.35,3.29-.47,4.6-2.84,4.6-2.84.03,1.7,2.77,4.38,2.77,4.38,0,0-2.17.41-4.24-.13-2.08-.54-2.46-.03-2.46-.03,2.07,2.52,7.63,1.11,7.63,1.11,0,0,3.96,4.18,10.82,5.17,6.86.99,10.21-2.13,10.21-2.13l-1.21-1.03c-9.71,5.05-17.78-2.39-17.78-2.39,0,0,2.62-1.63,3.54-1.88.93-.26,1.53-.16,4.57-.8,3.03-.64,4.34-3.03,4.34-3.03-5.36-1.44-8.05.89-9.8,2.81-1.76,1.91-3.96,1.62-3.96,1.62-1.15-.67-2.93-3.12-3.19-4.5-.25-1.37.16-3.38.16-3.38,0,0,1.82.9,2.23,3.13ZM137.45,274.48c-1.95,1.71-3.94,1.77-5.43,1.21-2.02-.77-4.03-4-1.69-6.67,0,0-.41,3.8,2.59,4.31,3,.51,3.64-1.98,2.49-2.71,0,0-.35,1.91-2.01,1.34-1.66-.58-1.73-2.17-1.41-3.26.32-1.08,2.04-2.58,4.92-1.34,2.87,1.25,2.39,5.49.54,7.12Z"/>
      <path class="cls-12" d="M154.48,278.9c-1.85.86-5.68.8-5.68.8,0,0,3.16,2.84,6.99.96,3.83-1.88,3.38-6.8,3.38-6.8,0,0-2.84,4.18-4.69,5.04Z"/>
      <path class="cls-12" d="M146.89,275.16c.45-1.85,1.76-3.93,6.41-3.29,0,0-1.18-1.47-4.24-.99-3.06.48-4.05,3.41-3.83,6.45,0,0,1.21-.32,1.66-2.17Z"/>
      <path class="cls-12" d="M122.85,272.58l4.45,3.02s-.14-3.49-4.45-3.02Z"/>
      <path class="cls-12" d="M119.58,269.09c.27.36.7.56,1.14.52l.6-.05s-1.68-1.72-1.34-4.12c.34-2.39,1.58-7.37-1.48-9.1,0,0,1.1,2.35.55,4.84-.51,2.31-1.35,5.42.53,7.9Z"/>
      <path class="cls-12" d="M284.22,176.2c-2.93-2.43-9.12-8.93-16.58-10.02-4.64-32.06-25.43-58.84-53.79-71.7-.12-.52-1.63-6.1-9.36-10.33l.07.02c-.11-2.28,2.75-3.87,3.6-4.29.14-.07.31-.08.45.01.96.62,1.83,2.32,2.46,3.74.67,1.53-.26,3.16,1.05,6.07,1.31,2.9,2.84,3.92,2.84,3.92.64-1.12-1.44-2.23-1.44-4.69s2.11-2.78,2.11-2.78c2.97-.22,2.46,2.81,2.46,2.81,1.08,0,2.23-3.29-.77-4.21-3-.93-4.75,1.59-4.75,1.59l-.06-1.08c-.05-.96.34-1.92,1.12-2.5,2.71-1.98,6.91-1.06,7.87,2.15,1.12,3.73-1.05,5.2-1.75,5.61-.7.42-2.14.13-2.75-.12-.6-.26-.57.64-.57.64.99,2.9,5.07.31,5.07.31-.29,4.14,1.71,6.34,2.89,7.26.45.35,1.09.31,1.51-.08,1.09-1.03,3.09-3.16,3.14-5.04.06-2.58-.67-1.94-.67-1.94-.62,2.49-2.02,4.29-2.69,5.05-.2.23-.55.25-.76.03-2.39-2.53-1.76-5.98-1.76-5.98,0,0,2.43-.99,5.81-1.59,3.38-.61,6.7,1.34,6.7,1.34-3.32-5.11-12.38-.96-12.38-.96.61-1.72.38-8.33-4.6-9.19-4.97-.86-6.65,2.36-6.65,2.36-.33-1.87-2.35-3.73-2.35-3.73l6.08.09c-2.34-2.25-7.08-.96-7.08-.96,0,0-2.73-2.72-8.43-4.5-5.69-1.77-13.74.05-13.74.05.07,1.15,4.25.58,4.25.58,9.41-.83,14.07,2.93,14.07,2.93-7.11-.62-11.09,2.42-11.9,3.12-.14-.08-.27-.15-.39-.25-1.86-1.52-8.7-7.15-11.51-9.71-3.25-2.96-5.26-8.8-5.26-8.8,0,0-2.01,5.84-5.27,8.8-2.8,2.56-9.65,8.19-11.5,9.71-.16.14-.35.24-.54.33-.53-.48-4.55-3.85-12-3.2,0,0,4.66-3.76,14.08-2.93,0,0,4.18.57,4.24-.58,0,0-8.04-1.82-13.74-.05-5.69,1.78-8.42,4.5-8.42,4.5,0,0-4.74-1.29-7.09.96l6.08-.09s-2.01,1.86-2.34,3.73c0,0-1.68-3.22-6.66-2.36s-5.2,7.47-4.59,9.19c0,0-9.07-4.15-12.39.96,0,0,3.32-1.95,6.71-1.34,3.38.6,5.81,1.59,5.81,1.59,0,0,.63,3.45-1.76,5.98-.21.22-.56.2-.76-.03-.67-.76-2.07-2.56-2.69-5.05,0,0-.73-.64-.67,1.94.05,1.88,2.05,4.01,3.14,5.04.42.39,1.06.43,1.51.08,1.18-.92,3.18-3.12,2.89-7.26,0,0,4.08,2.59,5.07-.31,0,0,.03-.9-.57-.64-.61.25-2.05.54-2.75.12-.7-.41-2.87-1.88-1.75-5.61.95-3.21,5.16-4.13,7.87-2.15.78.58,1.17,1.54,1.12,2.5l-.06,1.08s-1.75-2.52-4.75-1.59c-3,.92-1.86,4.21-.77,4.21,0,0-.51-3.03,2.46-2.81,0,0,2.1.32,2.1,2.78s-2.07,3.57-1.43,4.69c0,0,1.53-1.02,2.84-3.92,1.31-2.91.38-4.54,1.05-6.07.62-1.42,1.49-3.12,2.46-3.74.14-.09.31-.08.45-.01.85.42,3.71,2.01,3.6,4.29l.61-.2c-8.13,4.3-9.57,10.13-9.65,10.48-28.37,12.85-49.16,39.62-53.82,71.68-7.35,1.21-13.9,7.67-16.8,10.07-2.94,2.42-6.38,4.46-6.38,4.46,2.8.39,9.06,7.15,13.97,11.3,4.85,4.09,9.56,4.52,9.69,4.53,6.9,38.59,37.3,68.95,75.75,75.52.4,1.79,1.5,5.23,4.46,8.73,4.28,5.08,11.26,11.53,11.66,14.43,0,0,2.11-3.55,4.61-6.59,2.44-2.95,8.86-9.09,10.23-16.53,38.59-6.46,69.14-36.88,76.05-75.58,1-.13,5.19-.89,9.48-4.51,4.92-4.15,11.17-10.91,13.98-11.3,0,0-3.44-2.04-6.38-4.46ZM74.38,188.96c-2.88-2.87-9.83-8.62-9.83-8.62,0,0,4.59-2.23,9.25-6.76,4.3-4.18,9.08-5.05,9.79-5.16-.45,3.73-.68,7.53-.68,11.38v.12l-3.72-4.08c-.32-.34-.48-.8-.43-1.27.06-.46.29-.95.98-.97.52-.01,1,.26,1.31.68.33.44.71,1.16.81,2.21,0,0,.81-2.82-1.33-4.03-2.14-1.21-4.09,1.02-3.28,2.85,0,0-3.19-.28-3.04,2.54,0,0-3.25-.46-4.68,1.77-1.42,2.23,1.8,4.55,4.68,3.9,0,0-.25,3.5,3.16,2.73,0,0-.34,3.34,2.2,3.37,2.54.03,3.13-2.48,2.6-4.12,0,0-.34,2.6-1.92,2.54s-1.31-1.72-1.31-1.72l3.88-4.38.1-1.18c.02,4.96.25,8.81,1.09,13.69,0,0-6.76-2.62-9.63-5.49ZM77.67,181.93c1.18-.7,3.29-.35,3.29-.35-.7,2.11-4.44,4.5-5.01,3-.58-1.5.54-1.95,1.72-2.65ZM71.19,181.17c-.79-.87.2-1.85,2.01-2.05,1.82-.19,3.07,1.73,3.07,1.73-2.33,2.2-4.28,1.18-5.08.32ZM75.66,177.91c-.22-1.4,1.09-1.69,2.11-1.28,1.02.42,3.38,3.23,3.38,3.23-1.66.51-5.26-.54-5.49-1.95ZM207.01,78.53c.06.01.06.09,0,.12-3.38,1.56-4.07,3.86-4.21,4.65-2.04-.95-4.45-1.8-7.3-2.46,5.64-3.4,10.59-2.55,11.51-2.32ZM144.31,78.65c-.06-.03-.06-.11,0-.12.92-.24,5.96-.95,11.54,2.36-2.86.68-5.28,1.54-7.32,2.51-.1-.68-.68-3.12-4.22-4.75ZM183.56,281.67c-4.68,4.81-6.98,9.55-6.98,9.55,0,0-5.93-7.18-8.9-10.15-2.19-2.19-4.23-6.56-5.15-8.7,1.75.25,3.51.47,5.3.62-.86.44-1.49,1.24-1.48,2.52.04,2.67,3.73,2.31,3.73,2.31-.85,3.59,3.02,3.33,3.02,3.33-.72,3.03,1.85,6.41,4.32,4.92,2.47-1.5,1.96-4.92,1.96-4.92,3.12.16,2.81-3.2,2.81-3.2,2.02.85,4.49-1.2,3.15-3.45-.53-.9-1.35-1.3-2.14-1.46,1.86-.15,3.69-.37,5.51-.63-.41,1.77-1.66,5.68-5.15,9.26ZM180.73,277.4c.45,1.08.13,2.45-1.42,2.22-1.56-.24-2.72-4.03-2.16-5.77,0,0,3.11,2.48,3.58,3.55ZM178.59,273.29c.91-.02,1.81-.07,2.72-.12.92.15,1.59.48,2.02.78.46.33.76.83.75,1.38-.02.73-.56.97-1.07,1.03-.52.06-1.03-.11-1.41-.45l-3.01-2.62ZM177.97,282.21c-.22,1.9-1.3,2.94-2.27,2.11-.95-.84-2.08-2.89.36-5.34,0,0,2.12,1.32,1.91,3.23ZM174.86,277.51c-.77,1.24-1.27,2.42-2.93,1.81-1.66-.6.99-4.54,3.32-5.27,0,0,.39,2.22-.39,3.46ZM170.01,276.17s-1.84.29-1.91-1.37c-.03-.88.76-1.4,1.51-1.69,1.27.09,2.54.15,3.82.18l-3.42,2.88ZM175.76,271.66c-50.28,0-91.19-41.2-91.19-91.86,0-37.55,22.48-69.92,54.61-84.14,3.27-9.82,17.27-13.21,19.84-13.74.32-.07.63-.21.91-.4,13.1-9.23,15.67-14.59,15.84-14.97.26.55,3,5.91,15.86,14.97.27.19.58.33.91.4,2.54.53,16.42,4.11,19.5,13.61.02,0,.03.01.05.02,32.26,14.16,54.87,46.6,54.87,84.25,0,50.66-40.92,91.86-91.2,91.86ZM267.48,194.38c.62-4.04.99-8.16,1.09-12.36l3.81,4.3s.27,1.66-1.31,1.72-1.92-2.54-1.92-2.54c-.53,1.64.06,4.15,2.6,4.12,2.54-.03,2.2-3.37,2.2-3.37,3.41.77,3.16-2.73,3.16-2.73,2.88.65,6.1-1.67,4.68-3.9-1.43-2.23-4.68-1.77-4.68-1.77.15-2.82-3.04-2.54-3.04-2.54.81-1.83-1.14-4.06-3.28-2.85-2.14,1.21-1.33,4.03-1.33,4.03.1-1.05.48-1.77.81-2.21.31-.42.79-.69,1.31-.68.69.02.92.51.98.97.05.47-.11.93-.43,1.27l-3.51,3.85c-.01-3.81-.23-7.55-.68-11.23,1.18.21,5.59,1.24,9.58,5.12,4.66,4.53,9.25,6.76,9.25,6.76,0,0-6.95,5.75-9.83,8.62-2.61,2.62-8.44,5.01-9.46,5.42ZM275.05,180.85s1.25-1.92,3.07-1.73c1.81.2,2.8,1.18,2.01,2.05-.8.86-2.75,1.88-5.08-.32ZM275.37,184.58c-.57,1.5-4.31-.89-5.01-3,0,0,2.11-.35,3.29.35,1.18.7,2.3,1.15,1.72,2.65ZM275.66,177.91c-.23,1.41-3.83,2.46-5.49,1.95,0,0,2.36-2.81,3.38-3.23,1.02-.41,2.33-.12,2.11,1.28Z"/>
      <path class="cls-12" d="M64.9,172.82c.09-1.52.2-3.04.35-4.55.24-2.48.57-4.94.98-7.38.79-4.8,1.9-9.51,3.32-14.12.17-.6.36-1.2.56-1.79,1.31-4.07,2.87-8.05,4.66-11.93.32-.72.66-1.43,1.01-2.14,4.61-9.49,10.61-18.34,17.91-26.3-.16-.93-.28-1.81-.36-2.59-11.28,11.97-19.97,26.42-25.15,42.44-.14.41-.27.82-.4,1.23-2.85,9.14-4.56,18.79-4.97,28.77.59-.43,1.18-.88,1.75-1.35.11-.09.22-.19.34-.29Z"/>
      <path class="cls-12" d="M126.93,79.69c1.08-.53,2.18-1.04,3.28-1.54,5.69-2.55,11.59-4.6,17.65-6.14,2.68-.69,5.39-1.27,8.12-1.75,3.27-.58,6.57-1.01,9.91-1.29,1.09-.1,2.19-.18,3.29-.24.65-.59,1.24-1.32,1.77-2.1-.88.03-1.75.08-2.63.13-26.63,1.67-50.75,12.57-69.2,29.54.92.07,1.8.19,2.63.34,7.66-6.86,16.13-12.54,25.18-16.95Z"/>
    </g>
  </g>
  <g>
    <g>
      <path class="cls-5" d="M243.51,218.3c-1.71,1.42-2.36,4.09-2.54,5.09.77-.44,2.11-1.41,3.11-3.2,1.5-2.68.64-5.59.64-5.59-.99,1.79-3.32,2.36-4.25,4.05-.75,1.39-.36,3.89-.19,4.75,1.2-4.04,3.23-5.1,3.23-5.1Z"/>
      <path class="cls-5" d="M241.87,224.07s2.46-3.45,4.72-4.09,4.53.03,4.53.03c0,0-2.04,4.15-4.4,4.95s-5.71-.29-5.71-.29c0,0,4.53-.32,5.74-2.2,0,0-3,1.53-4.88,1.6Z"/>
      <path class="cls-5" d="M239.84,225.68s2.23,4.53,1.34,9.26c0,0,3.03-2.33,2.97-5.01s-3.48-4.28-4.31-4.24Z"/>
    </g>
    <g>
      <path class="cls-5" d="M108.34,218.3c1.71,1.42,2.36,4.09,2.54,5.09-.77-.44-2.11-1.41-3.11-3.2-1.5-2.68-.64-5.59-.64-5.59.99,1.79,3.32,2.36,4.25,4.05.75,1.39.36,3.89.19,4.75-1.2-4.04-3.23-5.1-3.23-5.1Z"/>
      <path class="cls-5" d="M109.98,224.07s-2.46-3.45-4.72-4.09-4.53.03-4.53.03c0,0,2.04,4.15,4.4,4.95s5.71-.29,5.71-.29c0,0-4.53-.32-5.74-2.2,0,0,3,1.53,4.88,1.6Z"/>
      <path class="cls-5" d="M112.01,225.68s-2.23,4.53-1.34,9.26c0,0-3.03-2.33-2.97-5.01s3.48-4.28,4.31-4.24Z"/>
    </g>
    <g>
      <path class="cls-5" d="M176.09,254.21s-1.44,2.9-4.31,5.36c0,0,3.16,3.1,4.31,5.43,0,0,3.03-4.37,4.44-5.33,0,0-3.13-3.06-4.44-5.46Z"/>
      <g>
        <path class="cls-5" d="M186.38,259.39c0,.42-.08.83-.23,1.2l27.79-2.07-28.08-.9c.33.51.52,1.12.52,1.77Z"/>
        <circle class="cls-5" cx="183.07" cy="259.39" r="1.8"/>
      </g>
      <g>
        <path class="cls-5" d="M165.84,259.39c0,.42.08.83.23,1.2l-27.79-2.07,28.08-.9c-.33.51-.52,1.12-.52,1.77Z"/>
        <circle class="cls-5" cx="169.14" cy="259.39" r="1.8"/>
      </g>
    </g>
  </g>
  <g>
    <path class="cls-8" d="M225.13,219.89l-5.57,11.33c-.14.29-.22.55-.51.61-.27.06-.65,0-.82-.34l-5.58-11.22-1.01,9.76c-.07.7.6,1.05,1.19,1.08.17.06.32.06.35.17.02.1-.04.34-.26.34l-5.55.03c-.18,0-.27-.14-.28-.22-.06-.44,1.6-.06,1.82-1.7l2.13-15.96c.09-.65.06-1.07.71-1.17.57-.09.9.16,1.19.73l6.6,13.18,6.63-13.36c.25-.49,1.21-.85,1.47-.29l2.31,16.4c.34,2.43,2.59,1.57,2.39,2.17-.03.09-.15.2-.33.2l-5.72-.02c-.14,0-.22-.08-.27-.11-.08-.06-.08-.27-.03-.43.33-.4.37-.85.38-1.37l-1.23-9.8Z"/>
    <path class="cls-8" d="M136.62,226.79l-2.29,4.72c-.13.18-.3.34-.46.36s-.51-.04-.64-.3l-5.63-11.35c-.52,3.42-.77,6.54-1.08,9.81-.15,1.62,2.17.83,1.58,1.47-.06.06-.21.11-.38.12l-5.42.04c-.22,0-.33-.08-.33-.22,0-.48,1.59-.06,1.82-1.76l2.26-16.61c.06-.44.66-.46.93-.48.39-.03.63.24.83.64l6.67,13.34,6.64-13.52c.14-.29.52-.35.7-.43.24-.1.74.02.8.42l2.35,16.34c.36,2.51,3.11,1.43,2.4,2.13-.26.25-5.69.17-6.57-.01.45-.71.65-1.14.57-1.8l-1.22-9.83c-1.39,2.3-2.39,4.6-3.52,6.94Z"/>
    <path class="cls-8" d="M160.15,213.15h5.72c.19,0,.31.09.34.21.16.56-1.71-.09-1.72,1.84l-.04,9.23c-.01,3.17-1.27,6.11-4.41,7.18-2.03.69-4.27.69-6.3.04-3.4-1.09-4.35-4.27-4.35-7.54l.02-8.71c0-1.94-1.92-1.5-2.09-1.91-.05-.12.11-.32.32-.33h6.7c.19-.01.32.07.35.18.14.57-1.71.09-1.71,1.88l-.02,9.77c0,.8.15,1.56.35,2.3.55,2.06,2.4,3.23,4.5,3.06,3.11-.27,4.1-2.95,4.11-5.74l.03-9.22c0-2.02-1.94-1.47-2.14-1.92-.05-.12.11-.31.34-.31Z"/>
    <path class="cls-8" d="M179.47,228.48c-1.96,5.23-10.51,3.73-10.63,2.21-.04-.55-.21-4.59.72-4.19.23.1.25,4.16,4.22,4,1.24-.05,2.25-.76,2.64-1.73,1.47-3.65-4.11-4.88-6.28-8.07-.93-1.37-1.32-3-.67-4.69,1.4-3.65,6.51-3.87,9.71-2.59l-.17,3.61c0,.19-.15.31-.24.35-.8.39-.1-2.91-3.51-3.02-1.07-.03-2.15.27-2.75,1.22s-.3,2.22.55,3c1.82,1.66,4.14,2.65,5.67,4.72,1.1,1.5,1.42,3.37.74,5.19Z"/>
    <path class="cls-8" d="M195.42,227.47c.46.08-.15,3.04-.29,3.68-.12.56-.73.65-1.28.64l-10.68-.15c-.23,0-.33-.1-.34-.21-.01-.5,1.48.03,1.71-1.5.14-.97.18-1.92.18-2.93v-11.7c0-1.72-1.86-1.5-2.03-1.8-.08-.15.11-.34.32-.34h6.87c.18-.01.3.1.33.19.14.55-1.89.1-1.88,1.96l.02,13.08c0,2.14,3.18,1.67,4.58,1.4,2.14-.4,1.9-2.42,2.49-2.31Z"/>
    <path class="cls-8" d="M203.31,229.6c0,1.59,1.91,1.51,2.04,1.7.05.07-.05.34-.21.34-2.53-.07-4.93.17-7.61-.11,1.29-.53,2.02-.92,2.03-2.21l.08-13.92c.01-1.8-1.89-1.54-2-1.92-.04-.14.12-.33.35-.33l7.07.04c.45.65-1.76.26-1.76,1.8v14.6Z"/>
    <path class="cls-8" d="M154.22,207.44c-.38.57-1,.37-1.42-.07l-15.35-16.05.13,13.35c.01,1.33,1.01,2.11,2.29,2.03.18.07.37.09.4.21.07.21-.13.4-.39.4l-6.74-.02c-.21,0-.35-.13-.36-.22-.07-.59,2.05-.24,2.06-2.57l.11-15.1c.01-1.7-.02-3.24-.1-4.92.39-.51,1.11-.5,1.58,0l15.24,16.11-.06-13.17c0-1.01-.64-1.74-1.63-1.87l-1.26-.22c.01-.43.35-.57.69-.57h6.57c.23,0,.43.14.49.27.36.84-2.25-.21-2.25,2.4v20Z"/>
    <path class="cls-8" d="M180.99,206.71c2.36,1.04-4.46.58-4.56.58-1.16-.06-2.16-.5-2.98-1.29-1.73-1.66-3.19-3.45-4.75-5.28l-3.31-3.86c-.1,2.74-.07,5.22-.02,7.83.01.61.2,1.18.56,1.53.77.75,1.92.35,1.97.7.02.09-.09.39-.27.39l-8.49.04c-.24,0-.36-.11-.37-.26-.06-.61,1.67.11,2.06-1.66.19-.88.26-1.76.26-2.71v-15.11c0-2.65-2.61-1.78-2.62-2.37,0-.13.1-.44.36-.44l8.19-.03c.23,0,.39.15.42.27.06.24-.16.36-.38.44-1.14.04-1.74.85-1.73,1.95l.06,7.48c2.58-2.58,4.98-5.07,7.27-7.75.28-.32.35-.73.3-1.11-.09-.64-1.05-.61-.98-.97.03-.18.27-.33.5-.34l6.74-.03c.24,0,.43.2.47.33.06.19-.11.32-.3.48-1.55.21-2.8,1.02-3.91,2.13l-7,7.03c3.06,3.48,5.96,6.88,9.15,10.11.97.99,2.04,1.73,3.37,1.93Z"/>
    <path class="cls-8" d="M187.62,203.63c0,.72.29,1.27.98,1.4,1.66.32,3.44.34,5.08-.16s1.65-2.99,2.4-2.4c.03,1.42-.28,2.84-.55,4.22-.12.65-.75.77-1.35.75-4.15-.13-8.18-.25-12.31-.15-.18,0-.32-.15-.36-.24-.18-.45,1.27-.09,1.63-1.75.19-.85.2-1.69.2-2.61v-15.1c0-2.49-2.53-1.67-2.5-2.41,0-.23.18-.46.5-.45l9.69.05c1.42,0,2.69-.13,4.18-.37l-.28,4.7c0,.12-.42.06-.43-.02,0-.09-.15-.25-.16-.36-.12-1.12-.86-1.7-1.92-1.72-1.6-.03-3.15-.08-4.77-.02l-.05,7.69c1.57.09,3.05.09,4.59-.05s1.6-1.19,2.02-1.02c.11.04.21.21.21.39l-.16,4.56c0,.22-.15.4-.32.37-.65-.11-.06-1.89-1.77-2.09-1.51-.18-2.99-.09-4.56-.06v6.85Z"/>
    <path class="cls-8" d="M129.55,204.98c-.88-1.71-1.55-3.42-2.31-5.25l-6.68-16.31c-.16-.4-.49-.65-.83-.66-.28,0-.71.23-.85.6l-4.04,10.11-4.58,11.14c-.55,1.34-1.55,2.13-3.07,2.26.3.61.83.51,1.28.47,1.85-.17,3.59-.13,5.43.01.42.04.94-.04.97-.5-.59-.06-1.09-.12-1.41-.48-.28-.32-.42-.79-.31-1.3.38-1.69,1.02-3.27,1.67-4.88l8.17.04c.61,1.74,1.27,3.2,1.74,4.81.24.81-.09,1.6-.88,1.87-.11.04-.04.4.11.4h7.89c.25.01.42-.2.4-.39-.07-.39-1.64.05-2.67-1.94ZM122.03,198.01c-.08.44-5.6.23-6.55.25l3.4-8.78,3.13,8.23c.04.11.03.24.01.3Z"/>
    <path class="cls-8" d="M244.18,184.74h-6.22c-.23,0-.44.13-.49.29-.11.38.78.28,1.1.86.13.24.18.68,0,1.03-1.36,2.81-2.9,5.44-4.59,8.22-1.71-2.74-3.09-5.38-4.53-8.1-.16-.31-.18-.67-.13-.95.13-.65,1.11-.63,1.03-1.07-.04-.2-.22-.31-.48-.31l-7.08.02-7.88.02c-.19,0-.36.14-.44.19-.1.07-.13.28-.04.35.39.32,1.38.02,2.17.68.49.41.63,1.06.63,1.78l.05,12.81-5.59-5.82-7.99-8.46-1.97-2.02h-.15c-.2-.18-.48-.18-.74-.13-.16.03-.49.19-.48.49l.06,8.39c.03,3.93.08,7.75-.15,11.64-.16,2.6-2.57,1.75-2.3,2.39.04.1.16.26.34.27l7.21.03c.31,0,.39-.24.37-.44-.04-.42-1.46.16-2.49-1.2,0-.07-.14-.53-.14-.53,0-.1-.01-.22-.03-.33-.09-.92-.14-1.85-.14-2.8.08-1.09-.03-2.2-.03-3.29-.01-4.78-.02-7.17-.02-7.17l.19-.03,15.34,15.99c.26.27,1.23.35,1.23-.12l.06-19.99c0-.97.46-1.73,1.43-1.89,1.42-.23,2.87.4,3.65,1.71,2.04,3.45,4.23,6.8,5.97,10.41.35,2.31,0,4.85-.01,7.14-.02,2.07-2.15,1.82-2.33,2.13-.06.11.09.34.33.34l8.84.02c.14,0,.23-.11.28-.15.09-.07.14-.27,0-.35-.08-.05-.26-.08-.44-.08-1.13.05-2.25-.6-2.19-1.9.11-2.36-.39-4.97.07-7.31,1.49-3.58,3.77-6.76,5.76-10.05,1.27-2.1,3.29-1.79,3.42-2.29.05-.2-.22-.44-.49-.44Z"/>
    <g>
      <path class="cls-8" d="M140.16,241.4l-2.51,5-2.62-4.92c-.25,1.39-.3,2.75-.39,4.17-.02.31.5.23.62.51-.84.1-1.59.17-2.5-.06.62-.19.82-.35.91-.94.37-2.29.49-4.54,1-6.87l3.14,5.78,3.03-5.67,1.17,6.93c.08.49.47.5.89.84-.88.11-1.63.02-2.6.02,0-.28.24-.34.37-.58l-.51-4.23Z"/>
      <path class="cls-8" d="M150.96,245.41l-.45-3.98-2.5,4.96-2.64-4.88-.4,3.65c-.05.5.13.72.58.97-.81.15-1.44.15-2.24-.02.39-.21.69-.33.74-.79l.74-6.59c.02-.15.08-.23.14-.24.08-.01.29-.03.37.12l2.89,5.55,3.08-5.77,1.02,6.71c.08.54.36.85.89,1.04-.9.17-1.69.13-2.56,0,.11-.23.38-.38.34-.74Z"/>
      <path class="cls-8" d="M214.16,239.22l-.14,7.23-5.63-5.43c-.14,1.46.03,2.92,0,4.43,0,.46.5.39.79.69-.89.13-1.63.09-2.53.01l.71-.41c.27-.15.18-.58.19-.91l.08-6.43,5.63,5.61c.02-1.66-.02-3.15-.09-4.72-.01-.32-.55-.24-.75-.55.78-.17,1.59-.11,2.45-.12-.07.33-.6.29-.71.61Z"/>
      <path class="cls-8" d="M169.39,246.43l-5.72-5.63c-.03,1.71.02,3.22.1,4.83.02.34.56.2.8.49-.79.14-1.58.14-2.52.02.45-.26.78-.4.79-.93l.05-6.92,5.69,5.7v-4.25c.04-.54-.25-.78-.74-1.06.8-.12,1.46-.09,2.35-.04-.5.35-.69.56-.7,1.11l-.1,6.69Z"/>
      <path class="cls-8" d="M158.76,238.68c.83-.14,1.5-.04,2.37-.05-.41.36-.61.59-.62,1.11l-.04,3.93c-.02,1.81-1.44,2.76-3.15,2.72-1.55-.04-2.9-.92-2.92-2.58l-.05-4.08c0-.52-.25-.74-.64-1.1l2.66.02c-.4.37-.68.59-.68,1.09l.02,4.1c0,1.1.88,1.83,1.87,1.85s1.78-.75,1.88-1.85c.13-1.42.06-2.83.07-4.28,0-.51-.35-.59-.77-.87Z"/>
      <path class="cls-8" d="M194.03,241.98c-.05,1.22.38,2.32,1.14,2.98.9.77,2.09.96,3.19.57.66-.23.82-.83,1.25-1.45.16.66-.06,1.15-.14,1.79-1.48.6-3.18.7-4.68.03-1.61-.72-2.44-2.35-2.24-4.08.19-1.62,1.5-2.93,3.27-3.26,1.28-.24,2.54-.05,3.77.33-.04.74.17,1.29-.1,2.07-.44-1.23-1.3-1.83-2.52-1.84-1.66-.02-2.87,1.07-2.94,2.85Z"/>
      <path class="cls-8" d="M117.42,241.96c-.04,1.94,1.16,3.58,3.03,3.76,1.19.11,2.06-.5,2.43-1.58.15.6.03,1.39-.29,1.84-1.46.62-3.29.57-4.69-.19s-2.11-2.17-2.02-3.65c.08-1.4,1-2.69,2.42-3.28s3.01-.42,4.47.04c.02.76.24,1.32,0,2.07-.35-1.22-1.19-1.78-2.32-1.84-1.68-.09-2.98,1.01-3.02,2.83Z"/>
      <path class="cls-8" d="M225.02,242.72c-.03.96-.05,1.79.02,2.79.6.11,1.29.22,1.9,0,.39-.14.37-.66.73-.92.08.51,0,.99-.12,1.62l-4.66-.02c.41-.39.75-.47.75-1.01v-5.45c0-.52-.36-.65-.76-1.04l4.64-.11c.05.56.03,1-.07,1.53l-.57-.66c-.35-.4-1.14-.1-1.85-.07,0,.75-.24,1.7.04,2.46.41.35,1.56.25,1.95-.21.17.47.12.87.03,1.37-.6-.46-1.31-.39-2.04-.27Z"/>
      <path class="cls-8" d="M203,242.77c-.26.81.03,1.8-.04,2.74.58.21,1.2.18,1.81.03.52-.12.55-.68.88-1.05.18.63-.05,1.1-.14,1.75l-4.78-.09c.56-.31.86-.41.85-.97-.03-1.96.07-3.89-.1-5.84-.06-.33-.52-.36-.65-.7l4.57-.02c.06.47.11.95-.07,1.46-.8-1.05-.74-.72-2.44-.74.03.8-.13,1.7.05,2.54.52.3,1.57.16,2.07-.23.12.54.17.93-.09,1.42-.39-.52-1.48-.6-1.95-.29Z"/>
      <path class="cls-8" d="M189.03,238.68c-.92.55-2.47,3.31-2.85,4.21s.02,1.96-.04,2.83c.34.26.62.12.83.44-1.04.11-1.87.1-2.88,0,.95-.16.61-3.08.57-3.18-.44-1.11-1.88-3.35-2.86-4.28.84-.09,1.63-.05,2.58-.05-.16.32-.44.5-.27.82.49.9.91,1.77,1.51,2.7.68-.86.98-1.73,1.49-2.58.18-.3.04-.54-.19-.89.75-.06,1.43-.09,2.11-.02Z"/>
      <path class="cls-8" d="M220.34,246.12c-.95.18-1.89.1-2.99.05.05-.41.79.06.79-1.04v-5.73c-1.58-.16-1.77-.26-2.54.8-.15-.55-.05-1.06.06-1.62l6.3.02c.11.55.15,1.07,0,1.62l-.51-.78c-.6-.26-1.32-.15-1.96-.08l-.03,5.97c0,.48.27.55.88.79Z"/>
      <path class="cls-8" d="M179.7,246.12c-.94.16-1.88.13-2.98.02.29-.27.75-.29.76-.74.07-2.04.11-4.02.04-6.05-.75-.06-1.48-.11-2.12.21-.26.13-.15.55-.54.7-.08-.56,0-1.07.12-1.68,2.15.1,4.19.21,6.42-.03.04.58.13,1.12.02,1.74-.91-1.18-.56-1.03-2.58-1v5.87c0,.51.18.68.86.95Z"/>
      <path class="cls-8" d="M174.13,246.19c-.98.09-1.82.08-2.85-.05.36-.24.74-.31.74-.8l.03-5.6c0-.56-.3-.75-.74-1.1l2.87.04c-.56.31-.83.46-.83,1.03v5.53c0,.52.26.62.78.96Z"/>
      <path class="cls-8" d="M128.18,238.33c-2.26,0-4.09,1.83-4.09,4.09s1.83,4.09,4.09,4.09,4.09-1.83,4.09-4.09-1.83-4.09-4.09-4.09ZM128.86,245.74c-.92.16-1.83-.16-2.46-.94-1.02-1.27-1.24-3.22-.4-4.66.46-.78,1.43-1.05,2.22-1,.85.06,1.67.56,2.14,1.38,1.06,1.86.61,4.83-1.5,5.22Z"/>
      <path class="cls-8" d="M232.91,242.58c1-.46,1.47-1.43,1.31-2.34-.2-1.03-1.12-1.64-2.19-1.62l-3.17.05c.45.35.75.54.74,1.07l-.02,5.6c0,.49-.35.52-.72.82,1.06.09,1.94.12,2.85-.04-.23-.28-.71-.18-.75-.5-.08-.86-.04-1.71,0-2.58.88-.32,1.86,2.08,2.96,2.89.65.47,1.59.4,2.4.2-1.64-.51-2.39-2.17-3.4-3.55ZM232.71,241.65c-.25.58-.93.77-1.8.68-.06-1.04-.03-1.99.04-3.02.64-.18,1.26.06,1.61.48.44.52.42,1.25.16,1.86Z"/>
    </g>
  </g>
</svg>