<?xml version="1.0" encoding="UTF-8"?>
<svg xmlns="http://www.w3.org/2000/svg" viewBox="135 85 90 95">
  <defs>
    <style>
      .cls-1 { fill: #02ac5c; }
      .cls-3 { fill: #f1bd57; }
      .cls-4 { fill: #f1bc57; }
      .cls-6 { fill: #f6ba5a; }
      .cls-7 { fill: #dea340; }
      .cls-9 { fill: #008c3a; }
      .cls-10 { fill: #00903e; }
      .cls-11 { fill: #efb956; }
      .cls-13 { fill: #019845; }
      .cls-14 { fill: #003c27; }
    </style>
  </defs>
  <g>
    <polygon class="cls-6" points="197.79 113.47 195.04 122.22 202.58 116.98 210.11 122.03 207.49 113.35 214.77 107.86 205.45 107.79 202.45 98.98 199.51 107.86 190.64 107.92 197.79 113.47"/>
    <path class="cls-6" d="M186.36,122.03c-6.83-4.1-9.45-9.13-9.45-9.13,0,0-2.58,5.03-9.41,9.13-7.34,4.4-18.26,11.68-12.32,23.49h2.11s-2.94-3.06-1.34-9.32c1.6-6.26,7.6-8.94,12.19-12,4.56-3.04,8.18-6.46,8.79-8.01.61,1.55,4.23,4.96,8.79,8.01,4.6,3.06,10.6,5.74,12.19,12s-1.34,9.32-1.34,9.32h2.11c5.94-11.81-4.98-19.09-12.32-23.49Z"/>
    <path class="cls-9" d="M194.35,144.93h-4.03c.48-4.44-1.48-7.59-3-8.89-.47-.41-1.15-.47-1.7-.17s-.85.92-.76,1.54c.09.61.09,1.24.04,1.86-3.95-6.16-7.91-9.72-7.91-9.72v-.02s-6.45,5.82-11.11,15.38h-6.25s-2.3-2.93-.64-8.04c1.66-5.1,9.38-9.19,12.19-11.42,2.81-2.24,5.43-5.3,5.81-6.45v.02c.38,1.15,3,4.21,5.81,6.44,2.81,2.23,10.53,6.32,12.19,11.43,1.66,5.1-.64,8.04-.64,8.04Z"/>
    <path class="cls-4" d="M158.49,156.83c-4.13,4.32-6.06,10.62-6.76,13.43-.11.46-.14.92-.09,1.36-1.56-.92-2.89-1.86-3.94-2.77-8.36-7.25-20.75-23.11-12.99-48.96,7.75-25.85,32.36-34.18,45.67-32.74,0,0-17.04.86-27.48,16.94-10.44,16.09-7.47,31.22-3.26,41.17,1.67,3.94,4.67,8.05,8.85,11.57Z"/>
    <path class="cls-4" d="M206.61,167.57c-13.27,13.27-31.63,12.7-44.85,8.49.26-.31.45-.68.57-1.08l.95-3.3.05-.21c.6-3.39,2.31-6.67,4.86-8.9,4.87,2.08,10.63,3.6,16.98,3.57,18.57-.1,33.99-16.09,31.59-38.68,0,0,9.29,20.68-10.15,40.11Z"/>
    <path class="cls-6" d="M164.33,146.89l-1.11,1.92h-5.1c-1.11,0-2.01.9-2.01,2.01v.86c-.78-.93-1.49-1.79-2.11-2.75v-.03c0-1.11.9-2.01,2.01-2.01h8.32Z"/>
    <path class="cls-6" d="M200.41,149.43v9.81c-.64.41-1.3.79-1.98,1.14v-10.05c0-.84-.68-1.52-1.52-1.52h-6.16l-1.06-1.92h8.18c1.4,0,2.54,1.14,2.54,2.54Z"/>
    <path class="cls-10" d="M162.99,149.71l-2.82,5.91c-.89-.73-1.73-1.49-2.51-2.27v-3.06c0-.3.24-.55.55-.55l4.78-.03Z"/>
    <path class="cls-10" d="M197.17,151.87l-.19,8.91-6.32-11.07,4.43.02c1.17,0,2.11.97,2.09,2.14Z"/>
    <path class="cls-11" d="M184.63,140.85c-.41,1.75-1.1,3.11-1.1,3.11-.47.86-1.03,1.61-1.64,2.25-3.28-6.14-4.57-7.46-4.86-7.73-.45.47-3.65,4.02-8.19,12.95-4.22,1.36-6.58,2.92-7.43,3.54l8.71-15.16s3.68-6.01,6.91-8.69v-.11s.04.03.06.05c.02-.02.04-.04.07-.05v.11c3.22,2.68,6.9,8.69,6.9,8.69l.57,1.04Z"/>
    <path class="cls-11" d="M196.29,161.92l-5.68,1.47c-1.72-3.7-3.42-6.67-4.74-9.36,1.79-1.77,2.65-3.4,2.72-3.54.24-.46.45-.92.62-1.36l7.08,12.79Z"/>
    <path class="cls-7" d="M181.46,146.63c-.4.39-.82.73-1.25,1.03-.67-1.2-2.34-4.13-3.28-5.6,0,0-2.97,4.92-4.89,8.49-.91.21-1.77.44-2.56.68,1.1-1.99,5.5-9.83,7.52-11.92,0,0,1.65,1.7,4.46,7.32Z"/>
    <path class="cls-7" d="M189.7,163.7l-1.42.19-4.45-8.16c.48-.33.91-.68,1.31-1.03l4.56,9Z"/>
    <circle class="cls-6" cx="176.93" cy="111.04" r="2.2"/>
    <path class="cls-6" d="M183.87,99.68c-1.18,6.9-8.49,4.78-9.4.48-.91-4.31,3.71-6.77,3.71-6.77h-.14c.09,0,.14,0,.14,0-2.08-.22-5.92,1.08-7.14,5.12-1.21,4.04.72,6.52,2.03,7.65,1.42,1.23,6.17,2.84,9.2-.2,3.04-3.04,1.59-6.27,1.59-6.27Z"/>
    <path class="cls-1" d="M154.65,172.88c-.79-.4-1.19-1.29-.98-2.14.79-3.18,3.13-10.69,8.35-14.35,0,0,3.54-3.06,12.03-4.76,0,0,7.37-.7,10.79-6.96,0,0,1.82-3.49,1.57-6.89-.02-.21.23-.32.37-.17,1.14,1.31,3.91,5.46.48,12.18,0,0-3.21,6.24-10.68,7.2s-13.88,6.56-15.22,14.12l-.95,3.31c-.18.62-.88.92-1.45.63l-4.3-2.18Z"/>
    <path class="cls-13" d="M187.43,143.54c0,.1-.01.21-.01.32-.04,1.47-.46,3.22-1.5,5.26-.03.05-2.92,5.55-9.53,6.39-8.28,1.06-15.05,7.34-16.5,15.27l-.77,2.69-3.2-1.62-.59-.3c-.09-.05-.15-.13-.18-.22-.04-.07-.04-.15-.02-.23.7-2.83,2.79-9.65,7.32-13.15.14-.11.29-.22.44-.33l.11-.09s3.42-2.83,11.29-4.41c.92-.1,8.28-1.15,11.89-7.75.04-.08.66-1.29,1.16-3,.05.37.09.76.09,1.17Z"/>
    <path class="cls-14" d="M187.34,142.37c-.5,1.71-1.12,2.92-1.16,3-3.61,6.6-10.97,7.65-11.89,7.75-7.87,1.58-11.25,4.39-11.29,4.41l-.11.09c-.15.11-.3.22-.44.33-4.39,3.43-6.54,10.38-7.3,13.38.03.09.09.17.18.22l.59.3c.75-3.93,2.88-10.75,7.29-13.84l.12-.1c.61-.47,4.03-2.89,11.01-4.29.83-.1,8-1.05,11.89-7.35.3-.47.54-.97.77-1.48.13-.29.28-.62.42-.93,0-.11.01-.22.01-.32,0-.42-.03-.8-.09-1.17Z"/>
  </g>
</svg>
