<svg width="18" height="18" viewBox="0 0 18 18" fill="none" xmlns="http://www.w3.org/2000/svg">
<path d="M13.2613 0.446335H4.60925C2.30892 0.446335 0.446335 2.30892 0.446335 4.60925V13.2613C0.446335 15.5616 2.30892 17.4242 4.60925 17.4242H13.2613C15.5616 17.4242 17.4242 15.5616 17.4242 13.2613V4.60925C17.4242 2.30892 15.5616 0.446335 13.2613 0.446335Z" fill="#FFBF00"/>
<path d="M12.7119 16.4714H12.7377C14.1539 16.4714 15.3041 15.0208 15.3041 13.2355V4.62642C15.3041 2.84109 14.1539 1.39051 12.7377 1.39051H12.7119L13.0209 0.29184H13.0467C14.9436 0.29184 16.48 2.23167 16.48 4.62642V13.2441C16.48 15.6388 14.9436 17.5787 13.0467 17.5787H13.0209L12.7119 16.4714Z" fill="#D89500"/>
<path d="M4.841 16.4714H5.12425C3.708 16.4714 2.55783 15.0208 2.55783 13.2355V4.62642C2.55783 2.84109 3.708 1.39051 5.12425 1.39051H4.841V0.29184H4.81525C2.91833 0.29184 1.38191 2.23167 1.38191 4.62642V13.2441C1.38191 15.6388 2.91833 17.5787 4.81525 17.5787H4.841V16.4714Z" fill="#D89500"/>
<path d="M8.91808 14.6603C7.39025 14.6603 6.04266 13.493 5.7165 11.8879C5.69933 11.8021 5.70791 11.7162 5.73366 11.6304C5.75941 11.5446 5.81091 11.4759 5.871 11.4158C5.93108 11.3557 6.01691 11.3214 6.09416 11.2957C6.18 11.2785 6.26583 11.2785 6.35166 11.3042C7.06408 11.5274 8.11125 11.8192 8.92666 11.8192C9.80216 11.8192 10.4545 11.5446 11.1412 11.2527C11.2442 11.2098 11.3557 11.1669 11.4587 11.124C11.536 11.0897 11.6304 11.0811 11.7162 11.0897C11.8021 11.0982 11.8879 11.1326 11.9566 11.1927C12.0252 11.2442 12.0767 11.3214 12.1111 11.3987C12.1454 11.4759 12.154 11.5703 12.1454 11.6562C11.9137 13.3728 10.5232 14.6603 8.91808 14.6603Z" fill="#222222"/>
<path d="M10.2142 13.0638C10.3601 13.0638 10.4545 13.2355 10.3687 13.3471C10.2399 13.5273 10.0768 13.6818 9.88801 13.802C9.60476 13.9823 9.27859 14.0767 8.94384 14.0767C8.60909 14.0767 8.28293 13.9823 7.99968 13.802C7.81084 13.6818 7.64776 13.5273 7.51901 13.3471C7.43318 13.2269 7.51901 13.0638 7.67351 13.0638H10.2142Z" fill="white"/>
<path d="M13.3213 0H4.54917C2.04283 0 0 2.04283 0 4.54917V13.3213C0 15.8277 2.04283 17.8705 4.54917 17.8705H13.3213C15.8277 17.8705 17.8705 15.8277 17.8705 13.3213V4.54917C17.8619 2.04283 15.8277 0 13.3213 0ZM16.48 13.3213C16.48 15.0637 15.0637 16.4886 13.3127 16.4886H4.54917C2.80675 16.4886 1.38192 15.0723 1.38192 13.3213V4.54917C1.38192 2.80675 2.79817 1.38192 4.54917 1.38192H5.54483C6.00833 1.38192 6.39458 1.75958 6.39458 2.23167V2.97842C6.39458 3.4505 6.77225 3.82817 7.24433 3.82817C7.71642 3.82817 8.09408 3.4505 8.09408 2.97842V2.23167C8.09408 1.75958 8.47175 1.38192 8.94383 1.38192C9.40733 1.38192 9.79358 1.75958 9.79358 2.23167V4.23158C9.79358 4.70367 10.1712 5.08133 10.6433 5.08133C11.1154 5.08133 11.4931 4.70367 11.4931 4.23158V2.23167C11.4931 1.75958 11.8707 1.38192 12.3428 1.38192H13.3385C15.0809 1.38192 16.5057 2.79817 16.5057 4.54917V13.3213H16.48Z" fill="#222222"/>
<path d="M12.3257 5.91393C12.2913 5.91393 12.2484 5.91393 12.2141 5.92251H12.2055C12.1969 5.92251 12.1883 5.93109 12.1798 5.93109C12.1626 5.93967 12.154 5.95684 12.154 5.97401C12.154 5.99117 12.1626 6.00834 12.1712 6.01692C12.1712 6.01692 12.1712 6.01692 12.1798 6.02551C12.4115 6.17142 12.5488 6.45467 12.4802 6.75509C12.4201 7.02976 12.1883 7.24434 11.9137 7.28726C11.6304 7.33018 11.3901 7.22718 11.2528 7.02118C11.2528 7.02118 11.2356 6.99542 11.2098 6.99542C11.1669 6.99542 11.1583 7.03834 11.1583 7.03834C11.124 7.16709 11.1154 7.27868 11.1154 7.41601C11.1154 8.24859 11.6562 8.92667 12.3257 8.92667C12.9952 8.92667 13.5359 8.24859 13.5359 7.41601C13.5359 6.59201 12.9952 5.91393 12.3257 5.91393Z" fill="#222222"/>
<path d="M5.53625 5.91393C5.50192 5.91393 5.459 5.91393 5.42467 5.92251H5.41609C5.4075 5.92251 5.39892 5.93109 5.39034 5.93109C5.37317 5.93967 5.36459 5.95684 5.36459 5.97401C5.36459 5.99117 5.37317 6.00834 5.38175 6.01692C5.38175 6.01692 5.38175 6.01692 5.39034 6.02551C5.62209 6.17142 5.75942 6.45467 5.69075 6.75509C5.63067 7.02976 5.39892 7.24434 5.12425 7.28726C4.841 7.33018 4.60067 7.22718 4.46334 7.02118C4.46334 7.02118 4.44617 6.99542 4.42042 6.99542C4.3775 6.99542 4.36892 7.03834 4.36892 7.03834C4.33459 7.16709 4.326 7.27868 4.326 7.41601C4.326 8.24859 4.86675 8.92667 5.53625 8.92667C6.20575 8.92667 6.7465 8.24859 6.7465 7.41601C6.7465 6.59201 6.20575 5.91393 5.53625 5.91393Z" fill="#222222"/>
</svg>
